<?xml version="1.0" encoding="utf-8"?>
<!-- Generator: Adobe Illustrator 23.1.0, SVG Export Plug-In . SVG Version: 6.00 Build 0)  -->
<svg version="1.1" id="Calque_1" xmlns="http://www.w3.org/2000/svg" xmlns:xlink="http://www.w3.org/1999/xlink" x="0px" y="0px"
	 viewBox="0 0 500 500" style="enable-background:new 0 0 500 500;" xml:space="preserve">
<style type="text/css">
	.st0{fill:#FFFFFF;}
</style>
<g>
	<path d="M197.28,408.45L38.52,305.87c-4.22-2.73-3.58-9.08,1.1-10.92l241.88-94.82c1.71-0.67,3.64-0.54,5.25,0.35l165.61,92.03
		c4.49,2.49,4.14,9.06-0.59,11.07L203.03,408.95C201.14,409.75,198.99,409.56,197.28,408.45z"/>
</g>
<g>
	<path class="st0" d="M196.76,383.08L38.01,280.5c-4.22-2.73-3.58-9.08,1.1-10.92l241.88-94.82c1.71-0.67,3.64-0.54,5.25,0.35
		l165.61,92.03c4.49,2.49,4.14,9.06-0.59,11.07L202.51,383.58C200.63,384.37,198.48,384.19,196.76,383.08z"/>
</g>
<g>
	<path d="M196.93,369.94L38.18,267.36c-4.22-2.73-3.58-9.08,1.1-10.92l241.88-94.82c1.71-0.67,3.64-0.54,5.25,0.35L452.01,254
		c4.49,2.49,4.14,9.06-0.59,11.07L202.68,370.43C200.8,371.23,198.65,371.04,196.93,369.94z"/>
</g>
<g>
	<path class="st0" d="M197.1,351.21L38.35,248.63c-4.22-2.73-3.58-9.08,1.1-10.92l241.88-94.82c1.71-0.67,3.64-0.54,5.25,0.35
		l165.61,92.03c4.49,2.49,4.14,9.06-0.59,11.07L202.85,351.71C200.97,352.5,198.82,352.32,197.1,351.21z"/>
</g>
<g>
	<path d="M197.1,338.13L38.35,235.55c-4.22-2.73-3.58-9.08,1.1-10.92l241.88-94.82c1.71-0.67,3.64-0.54,5.25,0.35l165.61,92.03
		c4.49,2.49,4.14,9.06-0.59,11.07L202.85,338.63C200.97,339.43,198.82,339.24,197.1,338.13z"/>
</g>
<g>
	<path class="st0" d="M196.93,318.15L38.18,215.57c-4.22-2.73-3.58-9.08,1.1-10.92l241.88-94.82c1.71-0.67,3.64-0.54,5.25,0.35
		l165.61,92.03c4.49,2.49,4.14,9.06-0.59,11.07L202.68,318.65C200.8,319.45,198.65,319.26,196.93,318.15z"/>
</g>
<g>
	<path d="M196.76,299.62L38.01,197.04c-4.22-2.73-3.58-9.08,1.1-10.92L280.98,91.3c1.71-0.67,3.64-0.54,5.25,0.35l165.61,92.03
		c4.49,2.49,4.14,9.06-0.59,11.07L202.51,300.11C200.63,300.91,198.48,300.72,196.76,299.62z"/>
</g>
</svg>
