<?xml version="1.0" encoding="utf-8"?>
<!-- Generator: Adobe Illustrator 23.1.0, SVG Export Plug-In . SVG Version: 6.00 Build 0)  -->
<svg version="1.1" id="Calque_1" xmlns="http://www.w3.org/2000/svg" xmlns:xlink="http://www.w3.org/1999/xlink" x="0px" y="0px"
	 viewBox="0 0 500 500" style="enable-background:new 0 0 500 500;" xml:space="preserve">
<style type="text/css">
	.st0{fill:#FFFFFF;}
</style>
<g>
	<path d="M400.76,401H98.24C71.05,401,49,378.95,49,351.76V168.24C49,141.05,71.05,119,98.24,119h302.52
		c27.2,0,49.24,22.05,49.24,49.24v183.52C450,378.95,427.95,401,400.76,401z"/>
</g>
<g>
	<path class="st0" d="M436.76,200.06H63.25c-4.52,0-8.19-3.67-8.19-8.19v-19.15c0-25.83,20.94-46.77,46.77-46.77h296.31
		c25.85,0,46.81,20.96,46.81,46.81v19.1C444.95,196.39,441.28,200.06,436.76,200.06z"/>
</g>
<path class="st0" d="M164.32,266.28h-22.86c-8.67,0-15.7-7.03-15.7-15.7v-22.26c0-8.67,7.03-15.7,15.7-15.7h22.86
	c8.67,0,15.7,7.03,15.7,15.7v22.26C180.02,259.25,172.99,266.28,164.32,266.28z"/>
<path class="st0" d="M286.44,325.72h-22.86c-8.67,0-15.7-7.03-15.7-15.7v-22.26c0-8.67,7.03-15.7,15.7-15.7h22.86
	c8.67,0,15.7,7.03,15.7,15.7v22.26C302.14,318.69,295.11,325.72,286.44,325.72z"/>
<path class="st0" d="M164.22,325.72h-22.86c-8.67,0-15.7-7.03-15.7-15.7v-22.26c0-8.67,7.03-15.7,15.7-15.7h22.86
	c8.67,0,15.7,7.03,15.7,15.7v22.26C179.92,318.69,172.89,325.72,164.22,325.72z"/>
<path class="st0" d="M164.22,387.37h-22.86c-8.67,0-15.7-7.03-15.7-15.7v-22.26c0-8.67,7.03-15.7,15.7-15.7h22.86
	c8.67,0,15.7,7.03,15.7,15.7v22.26C179.92,380.34,172.89,387.37,164.22,387.37z"/>
<path class="st0" d="M102.61,325.72H79.75c-8.67,0-15.7-7.03-15.7-15.7v-22.26c0-8.67,7.03-15.7,15.7-15.7h22.86
	c8.67,0,15.7,7.03,15.7,15.7v22.26C118.31,318.69,111.28,325.72,102.61,325.72z"/>
<path class="st0" d="M102.61,387.37H79.75c-8.67,0-15.7-7.03-15.7-15.7v-22.26c0-8.67,7.03-15.7,15.7-15.7h22.86
	c8.67,0,15.7,7.03,15.7,15.7v22.26C118.31,380.34,111.28,387.37,102.61,387.37z"/>
<path class="st0" d="M224.72,266.57h-22.86c-8.67,0-15.7-7.03-15.7-15.7v-22.26c0-8.67,7.03-15.7,15.7-15.7h22.86
	c8.67,0,15.7,7.03,15.7,15.7v22.26C240.41,259.54,233.39,266.57,224.72,266.57z"/>
<path class="st0" d="M286.33,266.57h-22.86c-8.67,0-15.7-7.03-15.7-15.7v-22.26c0-8.67,7.03-15.7,15.7-15.7h22.86
	c8.67,0,15.7,7.03,15.7,15.7v22.26C302.03,259.54,295,266.57,286.33,266.57z"/>
<path class="st0" d="M346.93,266.57h-22.86c-8.67,0-15.7-7.03-15.7-15.7v-22.26c0-8.67,7.03-15.7,15.7-15.7h22.86
	c8.67,0,15.7,7.03,15.7,15.7v22.26C362.63,259.54,355.6,266.57,346.93,266.57z"/>
<path class="st0" d="M407.54,266.57h-22.86c-8.67,0-15.7-7.03-15.7-15.7v-22.26c0-8.67,7.03-15.7,15.7-15.7h22.86
	c8.67,0,15.7,7.03,15.7,15.7v22.26C423.24,259.54,416.21,266.57,407.54,266.57z"/>
<path class="st0" d="M346.93,327.08h-22.86c-8.67,0-15.7-7.03-15.7-15.7v-22.26c0-8.67,7.03-15.7,15.7-15.7h22.86
	c8.67,0,15.7,7.03,15.7,15.7v22.26C362.63,320.05,355.6,327.08,346.93,327.08z"/>
<path class="st0" d="M407.54,325.94h-22.86c-8.67,0-15.7-7.03-15.7-15.7v-22.26c0-8.67,7.03-15.7,15.7-15.7h22.86
	c8.67,0,15.7,7.03,15.7,15.7v22.26C423.24,318.91,416.21,325.94,407.54,325.94z"/>
<path class="st0" d="M224.72,387.59h-22.86c-8.67,0-15.7-7.03-15.7-15.7v-22.26c0-8.67,7.03-15.7,15.7-15.7h22.86
	c8.67,0,15.7,7.03,15.7,15.7v22.26C240.41,380.56,233.39,387.59,224.72,387.59z"/>
<path class="st0" d="M286.33,387.59h-22.86c-8.67,0-15.7-7.03-15.7-15.7v-22.26c0-8.67,7.03-15.7,15.7-15.7h22.86
	c8.67,0,15.7,7.03,15.7,15.7v22.26C302.03,380.56,295,387.59,286.33,387.59z"/>
</svg>
