<?xml version="1.0" encoding="utf-8"?>
<!-- Generator: Adobe Illustrator 23.1.0, SVG Export Plug-In . SVG Version: 6.00 Build 0)  -->
<svg version="1.1" id="Calque_1" xmlns="http://www.w3.org/2000/svg" xmlns:xlink="http://www.w3.org/1999/xlink" x="0px" y="0px"
	 viewBox="0 0 500 500" style="enable-background:new 0 0 500 500;" xml:space="preserve">
<style type="text/css">
	.st0{fill:none;stroke:#FFFFFF;stroke-width:3;stroke-linecap:round;stroke-miterlimit:10;}
	.st1{fill:#FFFFFF;stroke:#FFFFFF;stroke-width:3;stroke-linecap:round;stroke-miterlimit:10;}
	.st2{fill:none;stroke:#000000;stroke-width:3;stroke-linecap:round;stroke-miterlimit:10;}
</style>
<polygon points="249.5,114.5 288.5,221.5 357.5,280.5 312.5,388.5 217.5,319.5 106.11,290.69 189,206 "/>
<g>
	<line class="st0" x1="249.5" y1="250.5" x2="249.5" y2="96.5"/>
</g>
<line class="st1" x1="375.5" y1="157.5" x2="249.5" y2="250.5"/>
<line class="st0" x1="407.5" y1="294.5" x2="249.5" y2="250.5"/>
<line class="st0" x1="319.5" y1="403.5" x2="249.5" y2="250.5"/>
<line class="st0" x1="179.5" y1="403.5" x2="249.5" y2="250.5"/>
<line class="st0" x1="92.5" y1="294.5" x2="249.5" y2="250.5"/>
<line class="st0" x1="123.5" y1="157.5" x2="249.5" y2="250.5"/>
<line class="st2" x1="375.63" y1="157.04" x2="288.5" y2="221.5"/>
<line class="st2" x1="407.63" y1="294.54" x2="357.5" y2="280.5"/>
<line class="st2" x1="319.63" y1="403.04" x2="312.5" y2="388.5"/>
<line class="st2" x1="179.63" y1="403.04" x2="217.5" y2="319.5"/>
<line class="st2" x1="92.13" y1="294.54" x2="106.5" y2="290.5"/>
<line class="st2" x1="123.63" y1="157.04" x2="189.5" y2="206.5"/>
<g>
	<line class="st2" x1="249.5" y1="115" x2="249.5" y2="97"/>
</g>
</svg>
